<?xml version="1.0" encoding="UTF-8"?>
<svg id="Layer_2" xmlns="http://www.w3.org/2000/svg" xmlns:xlink="http://www.w3.org/1999/xlink" viewBox="0 0 1200 1200">
  <defs>
    <style>
      .cls-1 {
        fill: url(#linear-gradient-2);
      }

      .cls-2 {
        fill: #344a72;
      }

      .cls-3 {
        fill: #213b70;
      }

      .cls-4 {
        fill: #265699;
      }

      .cls-5 {
        fill: #00bacf;
      }

      .cls-6 {
        fill: #5075d6;
      }

      .cls-7 {
        fill: #23180f;
      }

      .cls-8 {
        fill: #161d31;
      }

      .cls-9 {
        fill: #3f5d80;
      }

      .cls-10 {
        fill: #1d9dd7;
      }

      .cls-11 {
        fill: #0a0f13;
      }

      .cls-12 {
        fill: #162753;
      }

      .cls-13 {
        fill: #2b364e;
      }

      .cls-14 {
        fill: url(#linear-gradient-3);
      }

      .cls-15 {
        fill: #001017;
      }

      .cls-16 {
        fill: #647ff6;
      }

      .cls-17 {
        fill: #2c3955;
      }

      .cls-18 {
        fill: #2b7fc0;
      }

      .cls-19 {
        fill: #50649e;
      }

      .cls-20 {
        fill: #276fad;
      }

      .cls-21 {
        fill: #202329;
      }

      .cls-22 {
        fill: #263641;
      }

      .cls-23 {
        fill: #067ba4;
      }

      .cls-24 {
        fill: #2367e4;
      }

      .cls-25 {
        fill: #475381;
      }

      .cls-26 {
        fill: url(#linear-gradient);
      }

      .cls-27 {
        fill: #76b6ff;
      }

      .cls-28 {
        fill: #368fd6;
      }

      .cls-29 {
        fill: #0083cb;
      }
    </style>
    <linearGradient id="linear-gradient" x1="574.93" y1="659.4" x2="714.03" y2="699.44" gradientUnits="userSpaceOnUse">
      <stop offset="0" stop-color="#6bb0ff"/>
      <stop offset="1" stop-color="#01b9cc"/>
    </linearGradient>
    <linearGradient id="linear-gradient-2" x1="915.72" y1="642.05" x2="984.46" y2="661.84" xlink:href="#linear-gradient"/>
    <linearGradient id="linear-gradient-3" x1="259.5" y1="642.05" x2="328.24" y2="661.84" xlink:href="#linear-gradient"/>
  </defs>
  <g id="Layer_1-2" data-name="Layer_1">
    <rect class="cls-15" width="1200" height="1200"/>
    <g>
      <g>
        <g>
          <path class="cls-12" d="M499.99,824.36c-2.4-.44-2.72,1.16-.99,2.63,15.76,9.32,79.44,60.15,90.8,62.5,1.13.23,2.01-.07,2.96-.66,1.23,1.34,3,2.58,4.28,3.95l.99-8.55v11.18c-56.42-10.23-113.14-18.59-169.75-27.63,1.15-15.06-2.56-30.25-2.63-45.4,12.35.42,59.93-4.19,64.81-3.29,2.09,1.36,7.81,4.61,9.54,5.26Z"/>
          <path class="cls-11" d="M425.65,822.38c.07,15.15,3.79,30.34,2.63,45.4-26.07-4.16-52-9.17-78.29-11.84-.3-.84,1.82-2.38,2.3-2.63,21.62-11.15,44.78-19.76,66.12-31.58,1.72-.8,4.26.56,7.24.66Z"/>
          <g>
            <path class="cls-29" d="M779.62,807.25c-.9,7.09-11.13,55.96-10.53,58.89.64,3.12,3.97.56,5.26,2.3-55.61,8.66-111.34,16.61-166.79,26.32l-2.96-.66c4.38-2.73,29.3-27.99,35.53-34.21,26.05-26.03,49.86-54.01,75-80.93,1.58,3.55,56.61,24.8,64.48,28.29Z"/>
            <path class="cls-10" d="M790.14,802.64c6.06,4.18,11.6,9.04,17.76,13.16,8.26,7.1,16.66,14.05,25,21.05-.93-.12-.5,1.3-.99,1.32-2.79.07-41.31-25.91-48.36-27.63q-1.97-1.64-3.95-3.29c-7.87-3.49-62.9-24.75-64.48-28.29q-1.97-15.13-3.95-30.27c3.26,3.5,68.4,46.66,78.95,53.95Z"/>
            <path class="cls-29" d="M783.56,810.54q18.75,25.33,37.5,50.66c-15.55,2.53-31.14,4.81-46.71,7.24-1.29-1.75-4.62.82-5.26-2.3-.6-2.93,9.63-51.79,10.53-58.89q1.97,1.64,3.95,3.29Z"/>
            <path class="cls-29" d="M832.91,836.86c7.45,6.25,15.22,12.14,22.37,18.75-11.37,2.05-22.81,3.74-34.21,5.59q-18.75-25.33-37.5-50.66c7.05,1.73,45.57,27.71,48.36,27.63.49-.01.05-1.44.99-1.32Z"/>
          </g>
          <path class="cls-12" d="M389.46,817.12q14.47,2.3,28.95,4.61c-21.34,11.82-44.5,20.43-66.12,31.58-.49.25-2.6,1.79-2.3,2.63q-2.96-.82-5.92-1.64c12.15-8.65,22.95-18.91,34.21-28.62,1.99-1.71,3.96-3.61,5.92-5.26,1.64-.81,3.9-2.18,5.26-3.29Z"/>
          <path class="cls-3" d="M596.71,803.96q.66,40.13,1.32,80.27l-.99,8.55c-1.27-1.37-3.04-2.61-4.28-3.95-8.39-9.13-26.48-35.12-36.19-46.71v-.66l38.16-38.82c1.97.63,1.86,1.28,1.97,1.32Z"/>
          <path class="cls-12" d="M499.99,824.36c9.6,3.61,48.31,18.07,54.28,19.08,1.23.21,2.64.29,2.3-1.32,9.71,11.59,27.79,37.58,36.19,46.71-.95.58-1.83.89-2.96.66-11.36-2.36-75.04-53.18-90.8-62.5-1.73-1.47-1.41-3.08.99-2.63Z"/>
          <g>
            <path class="cls-8" d="M621.05,812.51c4.91,16.29,13.32,31.33,19.08,47.37-6.23,6.22-31.15,31.48-35.53,34.21-.98.61-1.94,1.39-2.96,1.97q-1.81-.33-3.62-.66v-11.18q-.66-40.13-1.32-80.27c4.27,1.41,22.11,5.96,24.34,8.55Z"/>
            <path class="cls-12" d="M704.61,732.25c1.47,4.43,3.23,8.85,3.95,13.49.5,1.48,1.74,2,2.63,2.96q1.97,15.13,3.95,30.27c-25.15,26.92-48.95,54.89-75,80.93-5.76-16.05-14.17-31.08-19.08-47.37,6.61-6.13,12.3-13.15,18.42-19.74,20.66-22.24,43.86-42.27,63.82-65.14.39,1.53.82,3.11,1.32,4.61Z"/>
            <path class="cls-11" d="M638.16,792.78h1.32c-6.12,6.59-11.81,13.61-18.42,19.74-2.23-2.59-20.07-7.14-24.34-8.55-.11-.04,0-.69-1.97-1.32-7.26-2.3-34.27-8.54-36.84-10.53,26.76-.56,53.52.66,80.27.66Z"/>
          </g>
          <path class="cls-12" d="M557.89,792.12c2.57,1.99,29.58,8.22,36.84,10.53l-38.16,38.82v-.66c.51-16.24-.4-32.46-.66-48.69,0-.05.73.16.66-.66l1.32.66Z"/>
        </g>
        <g>
          <path class="cls-11" d="M553.29,836.2c1.06,1.5,1.53,3.61,3.29,4.61v1.32c.34,1.61-1.07,1.52-2.3,1.32-5.97-1.01-44.68-15.47-54.28-19.08-1.73-.65-7.45-3.9-9.54-5.26-4.88-.9-52.46,3.7-64.81,3.29-2.98-.1-5.52-1.46-7.24-.66q-14.47-2.3-28.95-4.61c19.83-16.17,95.48-70.34,101.98-76.98,18.86,33.19,39.91,64.85,61.85,96.06Z"/>
          <path class="cls-11" d="M534.86,776.98c-1.03.03-.14,3.87,0,4.28,3.87,11.79,17.29,43.53,19.08,51.98.24,1.13-.08,2.01-.66,2.96-21.94-31.21-42.99-62.87-61.85-96.06.05-.05.56-.97.66-1.32,7.55,8.78,32.55,29.88,42.77,38.16Z"/>
          <path class="cls-8" d="M555.92,792.12c.26,16.22,1.17,32.45.66,48.69-1.76-.99-2.23-3.1-3.29-4.61.58-.95.9-1.83.66-2.96-1.79-8.45-15.21-40.19-19.08-51.98-.14-.41-1.03-4.24,0-4.28,6.68,5.42,13.44,11.02,21.05,15.13Z"/>
        </g>
        <g>
          <path class="cls-22" d="M593.42,334.85c1.37,0,3.5,2.45,5.92,4.61,3.44,3.06,15.39,17,21.05,22.7,22.58,22.71,45.63,44.94,68.43,67.44v.66c-29.36-4.68-58.27-11.82-87.51-17.11-.14-.03-.05-.86-2.63-1.32-46.48-6.85-93.58-9.09-140.47-11.84q38-20.23,75.99-40.46-29.28-16.28-58.56-32.57c2.2-.87,4.2-.68,6.58-1.32.07.43,2.17,1.3,2.3,1.32,13.83,1.66,38.78,3.43,53.95,4.61,18.26,1.42,36.67,1.88,54.94,3.29Z"/>
          <g>
            <path class="cls-5" d="M728.96,328.27l-.66,69.41c-2.12,3.45-4.88-.78-5.92.99q-28.29-14.47-56.58-28.95-29.28-18.09-58.56-36.19,54.94-3.62,109.88-7.24c3.83.82,8.17.16,11.84,1.97Z"/>
            <path class="cls-27" d="M772.38,388.14c3.35,7.46,6.18,15.42,9.21,23.03q-28.62-5.92-57.24-11.84l-1.97-.66c1.04-1.77,3.8,2.47,5.92-.99l.66-69.41q12.5,11.02,25,22.04c6,12.63,12.7,25.08,18.42,37.83Z"/>
          </g>
          <path class="cls-18" d="M572.37,305.9c4.51,6.86,17.74,21.62,20.4,26.32.5.88.88,1.55.66,2.63-18.27-1.41-36.67-1.87-54.94-3.29-15.17-1.18-40.12-2.94-53.95-4.61-.13-.02-2.23-.89-2.3-1.32,23-6.11,65.38-14.79,90.14-19.74Z"/>
          <path class="cls-28" d="M717.11,326.3q-54.94,3.62-109.88,7.24-4.93.16-9.87.33,10.86-13.98,21.71-27.96c32.68,6.24,65.48,13.47,98.03,20.4Z"/>
          <path class="cls-28" d="M619.08,305.9q-10.86,13.98-21.71,27.96,4.93-.16,9.87-.33,29.28,18.09,58.56,36.19c-18.41-7.24-37.88-15.67-55.6-25-4.6-2.43-13.18-9.96-10.86-5.26-2.42-2.15-4.55-4.61-5.92-4.61.22-1.08-.16-1.75-.66-2.63q.33-15.79.66-31.58c8.55,1.78,17.08,3.63,25.66,5.26Z"/>
          <path class="cls-13" d="M474.99,326.96c-6.74,23.56-10.97,47.98-19.08,71.06-.2-1.97-.45-3.94-.66-5.92-1.55-15.14-3.17-30.31-5.26-45.4v-.66c3.44-3.34,21.4-17.74,25-19.08Z"/>
          <path class="cls-28" d="M592.76,332.22c-2.65-4.7-15.89-19.46-20.4-26.32,6.99-1.4,13.99-4.01,21.05-5.26q-.33,15.79-.66,31.58Z"/>
          <path class="cls-12" d="M781.59,411.17l1.32,1.32c-.91-.18-1.5.3-1.97.99-9.11,13.22-55.03,80.16-57.9,88.49-2.44,11.56-5.12,23.26-7.24,34.87q-34.87,1.97-69.74,3.95c11.37-4.83,56.89-34.15,75-42.44q-16.12-34.05-32.24-68.1v-.66q17.76-15.13,35.53-30.27,28.62,5.92,57.24,11.84Z"/>
          <path class="cls-11" d="M455.25,392.09c.2,1.98.46,3.95.66,5.92,3.31,32.65,5.78,65.39,9.21,98.03-.22,1.46,1,1.78,1.97,2.63q6.74,19.08,13.49,38.16,33.72-.33,67.44-.66c5.23,2.28,10.53,4.37,15.79,6.58.21,4.67,7.62,10.67,11.18,15.13-.37.07-3.96,1.83-7.24,1.97-1.49-.43-5.65-1.27-6.58-1.32-22.11-.99-46.73-3.48-69.08-5.26-5.04-.4-14.02-2.25-19.41-3.29-7.94,4.88-9.31,7.13-13.49,14.47-2.23,3.92-6.31,8.55-4.61,13.49q38.16,61.35,76.32,122.71c5.28-.56,10.59.54,15.79.66,16.07.37,32.53-.83,48.69-.66.16,10.28,1.24,20.61.66,30.92v.66c-1.31.11-2.74-.19-3.95-.66-18.25-7.08-41.04-20.62-59.54-28.95q-.49.49-.99.99c7.56,18.65,19.47,73.53,24.34,85.2.14.33-.31,1.38.66,2.63.07.82-.66.61-.66.66-7.61-4.11-14.37-9.72-21.05-15.13-10.21-8.28-35.22-29.38-42.77-38.16-8.06-9.37-24.17-35.07-32.9-47.04q-1.97-25.99-3.95-51.98c-1.08-1.94-17.15,10.31-19.41,10.86-6.81-12.72-14.29-25.59-20.07-38.82-1.4-3.2-3.15-6.75-5.26-9.54q-2.3-25.33-4.61-50.66,15.13-8.22,30.27-16.45-7.57-17.76-15.13-35.53c-2.11-28.99-5.22-57.94-7.9-86.85,5.02-9.66,10.74-18.98,15.79-28.62,3.22,1.6,23.34,13.58,24.67,13.16,1.93-.61.1-4.4,1.64-5.26Z"/>
          <path class="cls-11" d="M455.25,392.09c-1.55.87.29,4.66-1.64,5.26-1.33.42-21.45-11.56-24.67-13.16,6.64-12.69,12.76-25.75,21.05-37.5,2.09,15.08,3.71,30.25,5.26,45.4Z"/>
          <g>
            <path class="cls-6" d="M598.68,411.83c-44.99,26.26-88.14,55.65-131.26,84.87l-2.3-.66c-3.43-32.64-5.9-65.38-9.21-98.03,8.11-23.08,12.34-47.5,19.08-71.06h.66q29.28,16.28,58.56,32.57-38,20.23-75.99,40.46c46.89,2.75,93.98,4.99,140.47,11.84Z"/>
            <path class="cls-27" d="M688.82,430.25q16.12,34.05,32.24,68.1c-18.11,8.28-63.63,37.61-75,42.44-2.48,1.05-5.34,1.75-7.9,2.63-10.85,3.73-26.47,6.8-38.16,9.87-.67.18-1.11.97-2.63.66-3.14-6.3,4.58-123.68,3.95-140.8,29.24,5.29,58.14,12.43,87.51,17.11Z"/>
            <path class="cls-16" d="M601.32,413.15c.63,17.12-7.09,134.49-3.95,140.8.23.45.56.82.66,1.32-.94.1-1.17.18-1.97.66-.92-2.31-5.28-2.32-5.92-2.63-8.53-4.15-17.59-6.86-26.32-10.53-5.26-2.21-10.56-4.3-15.79-6.58-9.94-4.34-77.57-34.56-80.93-37.5-.98-.86-2.19-1.17-1.97-2.63l2.3.66c43.12-29.22,86.26-58.61,131.26-84.87,2.59.46,2.49,1.29,2.63,1.32Z"/>
          </g>
          <path class="cls-20" d="M665.79,369.72q28.29,14.47,56.58,28.95l1.97.66q-17.76,15.13-35.53,30.27c-22.79-22.5-45.84-44.73-68.43-67.44-5.67-5.7-17.61-19.64-21.05-22.7-2.33-4.7,6.25,2.84,10.86,5.26,17.72,9.33,37.19,17.76,55.6,25Z"/>
          <path class="cls-26" d="M598.03,555.26c.63-.07,1.33-.03,1.97,0,5.68.23,11.45,1.34,17.11,1.97,5.48.62,9.37,1.95,9.87,1.97-1.39,1.37.99,1.58,2.63,1.97,9.59,27.37,23.65,52.9,35.53,79.28,3.58,7.96,7.47,22.02,12.5,26.65-.61,9.78-1.31,19.81-.66,29.61-.11.16-1.77,2.9-1.97,3.29-.05.09-.59.3-1.32,1.64,19.16-2.65,38.64-6.38,57.9-9.54-9.81,11.42-18.42,24.21-28.29,35.53-19.96,22.87-43.16,42.9-63.82,65.14h-1.32q-21.05-30.27-42.11-60.53v-.66c15.76-6.71,59.46-21.6,70.07-26.98,1.54-.78,4.55-2.04,4.28-3.29-.12-1.22-2.62-1.76-3.29-2.63-8.03-10.42-16.93-20.21-25-30.59-4.75-6.1-8.31-13.15-14.47-18.09.83-.61,2.02-.67,2.63-1.64-.16-2.02-30.4-.51-34.21-.99,0-.22,0-.44,0-.66.09-17.16.84-80.03,0-87.51-.12-1.07.08-2.21,0-3.29.81-.47,1.03-.55,1.97-.66Z"/>
          <path class="cls-6" d="M596.05,732.25q21.05,30.27,42.11,60.53c-26.75,0-53.51-1.22-80.27-.66l-1.32-.66c-.97-1.25-.52-2.31-.66-2.63,2.29,1.37.75,3.07,3.29.33,3.46-3.73,34.77-52,34.87-55.27.04-1.41-1.64-.75-1.97-2.3,1.2.47,2.63.77,3.95.66Z"/>
          <path class="cls-11" d="M715.8,536.84c-.01.06,1.01.41,0,1.32-17.26,6.25-62.41,18.4-78.95,20.4-3.24.39-6.59.83-9.87.66-.5-.03-4.39-1.36-9.87-1.97q10.53-6.91,21.05-13.82c2.55-.88,5.42-1.58,7.9-2.63q34.87-1.97,69.74-3.95Z"/>
          <path class="cls-9" d="M723.69,501.97q1.64,19.08,3.29,38.16c-3.58-1.81-7.29-2.97-11.18-1.97,1.01-.9-.01-1.25,0-1.32,2.11-11.61,4.8-23.31,7.24-34.87h.66Z"/>
          <path class="cls-10" d="M742.11,553.29c-.66.01-1.32-.02-1.97,0-2.59-4.2-8.89-11.01-13.16-13.16q-1.64-19.08-3.29-38.16c3.5,14.84,16.23,42.4,18.42,51.32Z"/>
          <g>
            <path class="cls-23" d="M782.91,412.49q-3.29,43.26-6.58,86.52c-5.47,12.14-10,24.65-14.47,37.17-.23.64-.41,1.28-.66,1.97q-.16-.99-.33-1.97c-6.94,8.36-10.88,23.78-17.44,27.63v-7.24c-.66-1.09-1.01-2.05-1.32-3.29-2.2-8.92-14.92-36.48-18.42-51.32h-.66c2.87-8.33,48.78-75.27,57.9-88.49.48-.69,1.07-1.17,1.97-.99Z"/>
            <path class="cls-29" d="M761.19,538.15c-.17.47-.58,3.29-1.97,7.24-7.02,19.96-13.47,31.03-17.76,53.29-1.32-11.51.93-23.36,1.97-34.87,6.56-3.85,10.5-19.27,17.44-27.63q.16.99.33,1.97Z"/>
          </g>
          <path class="cls-21" d="M751.33,582.89c-.22.95.22,2.34,0,3.29-2.04-1.56-6.94,14.68-8.55,20.4l-1.32.99q-.33-2.47-.66-4.93c.24-1.32.4-2.59.66-3.95,4.29-22.26,10.74-33.34,17.76-53.29-2.3,12.55-5.06,25.07-7.9,37.5Z"/>
          <g>
            <path class="cls-6" d="M561.18,558.55c2.72,3.44-20.49,6.39-27.96,7.24-19.96,2.26-39.36.22-59.21,1.97-7.49,6.87,18.54,17.26,26.32,22.37,18.74,12.33,36.45,26.4,57.57,34.87-.97,7.5-2.9,14.78-3.29,22.37-.12,2.25-.42,17.89.33,18.42,8-.05,16.01.07,24.01,0q-12.34.33-24.67.66-11.68,17.11-23.36,34.21-38.16-61.35-76.32-122.71c-1.71-4.94,2.37-9.56,4.61-13.49q16.45-5.59,32.9-11.18c22.36,1.78,46.97,4.28,69.08,5.26Z"/>
            <path class="cls-16" d="M567.76,559.87c-3.37,21.66-7.06,43.4-9.87,65.14-21.12-8.47-38.82-22.55-57.57-34.87-7.77-5.11-33.81-15.5-26.32-22.37,19.86-1.75,39.25.28,59.21-1.97,7.48-.85,30.68-3.8,27.96-7.24.93.04,5.09.89,6.58,1.32Z"/>
          </g>
          <path class="cls-19" d="M592.1,731.59c.33,1.55,2.02.9,1.97,2.3-.1,3.27-31.41,51.53-34.87,55.27-2.54,2.74-1,1.04-3.29-.33-4.88-11.67-16.79-66.55-24.34-85.2q.49-.49.99-.99c18.5,8.33,41.29,21.86,59.54,28.95Z"/>
          <path class="cls-17" d="M596.05,555.92c.08,1.08-.12,2.22,0,3.29-1.2-.28-2.19,2.02-2.63,2.96-12.93,27.8-24.33,56.54-36.84,84.54-.6-.03-.88.98-1.97.66.39-7.59,2.32-14.87,3.29-22.37,2.81-21.74,6.5-43.47,9.87-65.14,3.28-.14,6.87-1.9,7.24-1.97,4.78-.97,10.48-2.92,15.13-4.61.64.31,5,.32,5.92,2.63Z"/>
          <path class="cls-8" d="M548.02,536.18q-33.72.33-67.44.66-6.74-19.08-13.49-38.16c3.36,2.94,70.98,33.16,80.93,37.5Z"/>
          <path class="cls-3" d="M670.4,701.32c.27,1.25-2.73,2.51-4.28,3.29-10.61,5.38-54.31,20.27-70.07,26.98.59-10.31-.5-20.64-.66-30.92,25,.27,50,1.17,75,.66Z"/>
          <path class="cls-25" d="M594.74,665.79h1.32v.66q-24.67,17.44-49.35,34.87c-5.2-.12-10.51-1.22-15.79-.66q11.68-17.11,23.36-34.21,12.34-.33,24.67-.66c5.26-.05,10.53.04,15.79,0Z"/>
          <path class="cls-6" d="M596.05,667.77c-1.87,9.85-.82,22.76-.66,32.9-16.16-.17-32.61,1.03-48.69.66q24.67-17.44,49.35-34.87c-.04.43.08.9,0,1.32Z"/>
          <path class="cls-13" d="M492.1,553.29q-16.45,5.59-32.9,11.18c4.18-7.34,5.55-9.6,13.49-14.47,5.38,1.04,14.37,2.89,19.41,3.29Z"/>
          <path class="cls-13" d="M590.13,553.29c-4.65,1.68-10.36,3.64-15.13,4.61-3.57-4.46-10.97-10.46-11.18-15.13,8.73,3.67,17.79,6.37,26.32,10.53Z"/>
          <path class="cls-13" d="M638.16,543.42q-10.53,6.91-21.05,13.82c-5.66-.63-11.42-1.74-17.11-1.97v-1.97c11.69-3.07,27.31-6.14,38.16-9.87Z"/>
          <path class="cls-7" d="M600,555.26c-.64-.03-1.34-.07-1.97,0-.09-.49-.43-.86-.66-1.32,1.52.31,1.96-.48,2.63-.66v1.97Z"/>
          <path class="cls-25" d="M596.05,559.21c.84,7.48.09,70.34,0,87.51-13.16,1.49-26.31.57-39.48,0,12.52-28,23.92-56.75,36.84-84.54.44-.94,1.43-3.24,2.63-2.96Z"/>
          <path class="cls-27" d="M667.11,698.69c.67.87,3.17,1.41,3.29,2.63-25.01.51-50.01-.39-75-.66-.16-10.14-1.21-23.05.66-32.9,4.72.51,17.02,5.92,22.7,8.55,7.45,3.45,43.57,22.35,46.06,23.03,1.04.28,1.5-.32,2.3-.66Z"/>
          <path class="cls-27" d="M667.11,698.69c-.8.34-1.27.94-2.3.66-2.48-.68-38.6-19.58-46.06-23.03-5.68-2.63-17.98-8.05-22.7-8.55.08-.41-.04-.89,0-1.32v-.66c2.14-.37,28.95-13.87,31.58-15.79,6.17,4.94,9.73,11.99,14.47,18.09,8.08,10.38,16.97,20.17,25,30.59Z"/>
          <g>
            <path class="cls-11" d="M596.05,646.71c0,.22,0,.44,0,.66-.04,6.81.89,15.43-1.32,18.42-5.26.04-10.53-.05-15.79,0-8,.07-16.01-.05-24.01,0-.75-.53-.45-16.18-.33-18.42,1.09.32,1.37-.68,1.97-.66,13.16.57,26.32,1.49,39.48,0Z"/>
            <path class="cls-12" d="M627.63,650c-2.63,1.92-29.44,15.42-31.58,15.79h-1.32c2.2-3,1.27-11.61,1.32-18.42,3.81.48,34.06-1.03,34.21.99-.61.97-1.8,1.04-2.63,1.64Z"/>
          </g>
          <g>
            <path class="cls-28" d="M734.88,633.55c.22.19,1.09,1.78,1.32,1.97q-2.3,28.29-4.61,56.58c-19.26,3.16-38.74,6.89-57.9,9.54.72-1.34,1.27-1.55,1.32-1.64,4.32-1,16.32-15.62,21.05-21.38,2.25-2.73,17.52-21.59,17.76-23.03.01-.08-.92-1.08-1.32-.99,6.84-7.74,13.83-15.34,20.72-23.03.9.59,1.55,1.89,1.64,1.97Z"/>
            <path class="cls-18" d="M675,700.01c.2-.39,1.86-3.13,1.97-3.29,5.73-7.86,27.62-33.16,35.53-42.11.4-.09,1.33.91,1.32.99-.24,1.43-15.52,20.3-17.76,23.03-4.74,5.76-16.73,20.38-21.05,21.38Z"/>
          </g>
          <g>
            <path class="cls-27" d="M782.91,596.71c.88.02,1.75-.01,2.63,0-.07.31.73,1.61-.66,6.25-2.99,5.28-5.6,10.82-8.55,16.12-1.8,3.22-17.86,28.33-19.08,29.61q-2.3-26.81-4.61-53.62c.78-2.32,24.18,1.54,30.27,1.64Z"/>
            <path class="cls-27" d="M790.8,550.65c-10.98,8.7-21.47,18.03-32.24,26.98-2.26,1.88-4.69,3.77-7.24,5.26,2.83-12.44,5.6-24.95,7.9-37.5,1.39-3.95,1.81-6.77,1.97-7.24.25-.69.43-1.33.66-1.97,5.19,3.18,26.72,11.92,28.95,14.47Z"/>
            <path class="cls-4" d="M785.54,596.71c-.88-.01-1.75.02-2.63,0q-12.17-9.54-24.34-19.08c10.77-8.95,21.25-18.27,32.24-26.98.1.11,1.06-.28,1.32.33-1.94,15.15-3.16,30.74-6.58,45.73Z"/>
            <path class="cls-11" d="M782.91,596.71c-6.09-.11-29.48-3.96-30.27-1.64q2.3,26.81,4.61,53.62c-.08.08.34,1.08-.99,1.97-1.62.24-17.57-12.94-20.07-15.13-.22-.2-1.1-1.78-1.32-1.97,4.9-9.66,4.04-20.57,5.92-30.92q.33,2.47.66,4.93l1.32-.99c-5.39,19.16,2.97,4.27,8.55-20.4.22-.95-.22-2.34,0-3.29,2.55-1.49,4.98-3.39,7.24-5.26q12.17,9.54,24.34,19.08Z"/>
            <path class="cls-2" d="M751.33,586.18c-5.58,24.67-13.95,39.56-8.55,20.4,1.61-5.71,6.51-21.96,8.55-20.4Z"/>
          </g>
          <g>
            <path class="cls-27" d="M743.43,563.81c-1.05,11.52-3.29,23.36-1.97,34.87-.26,1.36-.42,2.63-.66,3.95-1.88,10.35-1.03,21.26-5.92,30.92-.1-.08-.75-1.39-1.64-1.97-6.89,7.69-13.88,15.29-20.72,23.03-7.91,8.95-29.79,34.24-35.53,42.11-.65-9.8.05-19.83.66-29.61,1.88-30.19,5.54-60.32,10.53-90.14q2.47.33,4.93.66c10.81-5.31,36.44-11.83,44.74-15.79,2.38-1.13,4.44-2.82,5.59-5.26v7.24Z"/>
            <path class="cls-27" d="M740.14,553.29c.66-.02,1.32.01,1.97,0,.31,1.24.65,2.2,1.32,3.29-1.15,2.45-3.22,4.13-5.59,5.26-8.3,3.96-33.93,10.48-44.74,15.79q-2.47-.33-4.93-.66c-19.06-6.92-38.9-11.05-58.56-15.79-1.64-.4-4.02-.6-2.63-1.97,3.28.18,6.63-.27,9.87-.66,3.71,1.87,9.72-.44,14.15-.66,18.32-.92,36.9.46,55.27-.66,11.08-.68,27.58-3.77,33.88-3.95Z"/>
            <path class="cls-24" d="M688.16,576.97c-4.99,29.82-8.64,59.94-10.53,90.14-5.03-4.63-8.92-18.69-12.5-26.65-11.87-26.38-25.94-51.92-35.53-79.28,19.65,4.74,39.5,8.87,58.56,15.79Z"/>
            <path class="cls-24" d="M726.98,540.13c4.26,2.15,10.56,8.96,13.16,13.16-6.3.18-22.8,3.27-33.88,3.95-18.36,1.12-36.95-.26-55.27.66-4.43.22-10.44,2.53-14.15.66,16.54-2,61.69-14.15,78.95-20.4,3.9-.99,7.61.17,11.18,1.97Z"/>
          </g>
        </g>
      </g>
      <g>
        <g>
          <path class="cls-12" d="M878.69,723.56c-1.19-.22-1.34.58-.49,1.3,7.79,4.61,39.25,29.72,44.87,30.89.56.12.99-.04,1.46-.33.61.66,1.48,1.27,2.11,1.95l.49-4.23v5.53c-27.88-5.06-55.91-9.19-83.88-13.65.57-7.44-1.27-14.95-1.3-22.43,6.1.21,29.61-2.07,32.02-1.63,1.03.67,3.86,2.28,4.71,2.6Z"/>
          <path class="cls-11" d="M841.96,722.59c.03,7.49,1.87,14.99,1.3,22.43-12.88-2.06-25.7-4.53-38.69-5.85-.15-.41.9-1.18,1.14-1.3,10.68-5.51,22.13-9.76,32.67-15.61.85-.4,2.11.28,3.58.33Z"/>
          <g>
            <path class="cls-29" d="M1016.87,715.11c-.44,3.5-5.5,27.65-5.2,29.1.32,1.54,1.96.27,2.6,1.14-27.48,4.28-55.02,8.21-82.42,13l-1.46-.33c2.17-1.35,14.48-13.83,17.56-16.91,12.87-12.86,24.64-26.69,37.06-39.99.78,1.75,27.97,12.26,31.86,13.98Z"/>
            <path class="cls-10" d="M1022.07,712.84c2.99,2.07,5.73,4.47,8.78,6.5,4.08,3.51,8.23,6.95,12.35,10.4-.46-.06-.25.64-.49.65-1.38.04-20.41-12.8-23.9-13.65l-1.95-1.63c-3.89-1.72-31.08-12.23-31.86-13.98q-.98-7.48-1.95-14.96c1.61,1.73,33.8,23.06,39.01,26.66Z"/>
            <path class="cls-29" d="M1018.82,716.74q9.27,12.52,18.53,25.03c-7.68,1.25-15.39,2.38-23.08,3.58-.64-.86-2.28.41-2.6-1.14-.3-1.45,4.76-25.59,5.2-29.1l1.95,1.63Z"/>
            <path class="cls-29" d="M1043.2,729.74c3.68,3.09,7.52,6,11.05,9.27-5.62,1.01-11.27,1.85-16.91,2.76q-9.27-12.52-18.53-25.03c3.48.85,22.52,13.69,23.9,13.65.24,0,.03-.71.49-.65Z"/>
          </g>
          <path class="cls-12" d="M824.07,719.99q7.15,1.14,14.3,2.28c-10.55,5.84-21.99,10.09-32.67,15.61-.24.12-1.29.89-1.14,1.3l-2.93-.81c6.01-4.27,11.34-9.35,16.91-14.14.98-.85,1.96-1.78,2.93-2.6.81-.4,1.93-1.07,2.6-1.63Z"/>
          <path class="cls-3" d="M926.49,713.49l.65,39.66-.49,4.23c-.63-.68-1.5-1.29-2.11-1.95-4.15-4.51-13.08-17.35-17.88-23.08v-.33q9.43-9.59,18.86-19.18c.97.31.92.63.98.65Z"/>
          <path class="cls-12" d="M878.69,723.56c4.74,1.79,23.87,8.93,26.82,9.43.61.1,1.3.14,1.14-.65,4.8,5.73,13.73,18.57,17.88,23.08-.47.29-.9.44-1.46.33-5.61-1.17-37.08-26.28-44.87-30.89-.85-.73-.7-1.52.49-1.3Z"/>
          <g>
            <path class="cls-8" d="M938.51,717.71c2.43,8.05,6.58,15.48,9.43,23.41-3.08,3.07-15.39,15.56-17.56,16.91-.48.3-.96.69-1.46.98q-.89-.16-1.79-.33v-5.53l-.65-39.66c2.11.7,10.93,2.94,12.03,4.23Z"/>
            <path class="cls-12" d="M979.8,678.05c.72,2.19,1.59,4.37,1.95,6.66.24.73.86.99,1.3,1.46q.98,7.48,1.95,14.96c-12.43,13.3-24.19,27.12-37.06,39.99-2.84-7.93-7-15.36-9.43-23.41,3.27-3.03,6.08-6.5,9.1-9.75,10.21-10.99,21.67-20.89,31.54-32.19.19.76.41,1.54.65,2.28Z"/>
            <path class="cls-11" d="M946.97,707.96h.65c-3.03,3.26-5.84,6.72-9.1,9.75-1.1-1.28-9.92-3.53-12.03-4.23-.06-.02,0-.34-.98-.65-3.59-1.14-16.93-4.22-18.21-5.2,13.22-.28,26.44.33,39.66.33Z"/>
          </g>
          <path class="cls-12" d="M907.3,707.63c1.27.98,14.62,4.06,18.21,5.2q-9.43,9.59-18.86,19.18v-.33c.25-8.03-.2-16.04-.33-24.06,0-.02.36.08.33-.33l.65.33Z"/>
        </g>
        <g>
          <path class="cls-11" d="M905.03,729.42c.52.74.76,1.79,1.63,2.28v.65c.17.8-.53.75-1.14.65-2.95-.5-22.08-7.64-26.82-9.43-.86-.32-3.68-1.93-4.71-2.6-2.41-.45-25.92,1.83-32.02,1.63-1.47-.05-2.73-.72-3.58-.33q-7.15-1.14-14.3-2.28c9.8-7.99,47.18-34.76,50.39-38.04,9.32,16.4,19.72,32.05,30.56,47.47Z"/>
          <path class="cls-11" d="M895.92,700.16c-.51.02-.07,1.91,0,2.11,1.91,5.82,8.55,21.51,9.43,25.68.12.56-.04,1-.33,1.46-10.84-15.42-21.24-31.07-30.56-47.47.03-.03.27-.48.33-.65,3.73,4.34,16.09,14.77,21.13,18.86Z"/>
          <path class="cls-8" d="M906.33,707.63c.13,8.02.58,16.03.33,24.06-.87-.49-1.1-1.53-1.63-2.28.29-.47.44-.91.33-1.46-.88-4.18-7.51-19.86-9.43-25.68-.07-.2-.51-2.1,0-2.11,3.3,2.68,6.64,5.45,10.4,7.48Z"/>
        </g>
        <g>
          <path class="cls-22" d="M924.86,481.68c.68,0,1.73,1.21,2.93,2.28,1.7,1.51,7.6,8.4,10.4,11.22,11.16,11.22,22.55,22.21,33.81,33.32v.33c-14.51-2.31-28.79-5.84-43.24-8.45-.07-.01-.02-.42-1.3-.65-22.97-3.39-46.24-4.49-69.41-5.85q18.78-10,37.55-19.99-14.47-8.05-28.94-16.09c1.09-.43,2.07-.34,3.25-.65.04.21,1.07.64,1.14.65,6.84.82,19.16,1.69,26.66,2.28,9.03.7,18.12.93,27.15,1.63Z"/>
          <g>
            <path class="cls-5" d="M991.83,478.43q-.16,17.15-.33,34.3c-1.05,1.71-2.41-.39-2.93.49q-13.98-7.15-27.96-14.3-14.47-8.94-28.94-17.88,27.15-1.79,54.29-3.58c1.89.4,4.04.08,5.85.98Z"/>
            <path class="cls-27" d="M1013.29,508.01c1.65,3.69,3.05,7.62,4.55,11.38q-14.14-2.93-28.28-5.85l-.98-.33c.51-.87,1.88,1.22,2.93-.49q.16-17.15.33-34.3,6.18,5.45,12.35,10.89c2.97,6.24,6.28,12.39,9.1,18.69Z"/>
          </g>
          <path class="cls-18" d="M914.46,467.37c2.23,3.39,8.77,10.68,10.08,13,.24.43.43.77.33,1.3-9.03-.7-18.12-.92-27.15-1.63-7.5-.58-19.82-1.45-26.66-2.28-.07,0-1.1-.44-1.14-.65,11.36-3.02,32.3-7.31,44.54-9.75Z"/>
          <path class="cls-28" d="M985.98,477.45q-27.15,1.79-54.29,3.58-2.44.08-4.88.16,5.36-6.91,10.73-13.82c16.15,3.08,32.35,6.66,48.44,10.08Z"/>
          <path class="cls-28" d="M937.54,467.37q-5.36,6.91-10.73,13.82,2.44-.08,4.88-.16,14.47,8.94,28.94,17.88c-9.1-3.58-18.72-7.74-27.47-12.35-2.28-1.2-6.51-4.92-5.36-2.6-1.2-1.06-2.25-2.28-2.93-2.28.11-.53-.08-.87-.33-1.3l.33-15.61c4.22.88,8.44,1.79,12.68,2.6Z"/>
          <path class="cls-13" d="M866.34,477.78c-3.33,11.64-5.42,23.71-9.43,35.11-.1-.98-.22-1.95-.33-2.93-.77-7.48-1.57-14.98-2.6-22.43v-.33c1.7-1.65,10.58-8.77,12.35-9.43Z"/>
          <path class="cls-28" d="M924.53,480.38c-1.31-2.32-7.85-9.62-10.08-13,3.45-.69,6.91-1.98,10.4-2.6l-.33,15.61Z"/>
          <path class="cls-12" d="M1017.84,519.39l.65.65c-.45-.09-.74.15-.98.49-4.5,6.53-27.19,39.61-28.61,43.73-1.2,5.71-2.53,11.49-3.58,17.23q-17.23.98-34.46,1.95c5.62-2.39,28.11-16.88,37.06-20.97q-7.97-16.82-15.93-33.65v-.33q8.78-7.48,17.56-14.96,14.14,2.93,28.28,5.85Z"/>
          <path class="cls-11" d="M856.59,509.96c.1.98.23,1.95.33,2.93,1.64,16.13,2.86,32.31,4.55,48.44-.11.72.49.88.98,1.3q3.33,9.43,6.66,18.86,16.66-.16,33.32-.33c2.59,1.13,5.2,2.16,7.8,3.25.11,2.31,3.76,5.27,5.53,7.48-.18.04-1.95.91-3.58.98-.74-.21-2.79-.63-3.25-.65-10.93-.49-23.09-1.72-34.14-2.6-2.49-.2-6.93-1.11-9.59-1.63-3.92,2.41-4.6,3.52-6.66,7.15-1.1,1.94-3.12,4.23-2.28,6.66q18.86,30.32,37.71,60.63c2.61-.28,5.23.27,7.8.33,7.94.18,16.07-.41,24.06-.33.08,5.08.62,10.18.33,15.28v.33c-.65.06-1.36-.09-1.95-.33-9.02-3.5-20.28-10.19-29.42-14.3l-.49.49c3.73,9.22,9.62,36.33,12.03,42.1.07.16-.15.68.33,1.3.03.41-.33.3-.33.33-3.76-2.03-7.1-4.8-10.4-7.48-5.05-4.09-17.4-14.52-21.13-18.86-3.98-4.63-11.94-17.33-16.26-23.25q-.98-12.84-1.95-25.68c-.53-.96-8.47,5.1-9.59,5.36-3.37-6.29-7.06-12.65-9.92-19.18-.69-1.58-1.56-3.34-2.6-4.71q-1.14-12.52-2.28-25.03,7.48-4.06,14.96-8.13-3.74-8.78-7.48-17.56c-1.04-14.33-2.58-28.63-3.9-42.91,2.48-4.77,5.31-9.38,7.8-14.14,1.59.79,11.53,6.71,12.19,6.5.95-.3.05-2.17.81-2.6Z"/>
          <path class="cls-11" d="M856.59,509.96c-.77.43.14,2.3-.81,2.6-.66.21-10.6-5.71-12.19-6.5,3.28-6.27,6.3-12.73,10.4-18.53,1.03,7.45,1.83,14.95,2.6,22.43Z"/>
          <g>
            <path class="cls-6" d="M927.46,519.72c-22.23,12.98-43.55,27.5-64.86,41.94l-1.14-.33c-1.69-16.13-2.92-32.31-4.55-48.44,4.01-11.41,6.1-23.47,9.43-35.11h.33q14.47,8.05,28.94,16.09-18.78,10-37.55,19.99c23.17,1.36,46.44,2.47,69.41,5.85Z"/>
            <path class="cls-27" d="M972,528.82q7.97,16.82,15.93,33.65c-8.95,4.09-31.44,18.58-37.06,20.97-1.23.52-2.64.87-3.9,1.3-5.36,1.84-13.08,3.36-18.86,4.88-.33.09-.55.48-1.3.33-1.55-3.12,2.26-61.11,1.95-69.57,14.45,2.61,28.73,6.14,43.24,8.45Z"/>
            <path class="cls-16" d="M928.76,520.37c.31,8.46-3.5,66.46-1.95,69.57.11.22.28.41.33.65-.47.05-.58.09-.98.33-.46-1.14-2.61-1.15-2.93-1.3-4.21-2.05-8.69-3.39-13-5.2-2.6-1.09-5.22-2.12-7.8-3.25-4.91-2.14-38.33-17.08-39.99-18.53-.48-.42-1.08-.58-.98-1.3l1.14.33c21.31-14.44,42.63-28.96,64.86-41.94,1.28.23,1.23.64,1.3.65Z"/>
          </g>
          <path class="cls-20" d="M960.62,498.91q13.98,7.15,27.96,14.3l.98.33q-8.78,7.48-17.56,14.96c-11.26-11.12-22.65-22.1-33.81-33.32-2.8-2.82-8.7-9.7-10.4-11.22-1.15-2.32,3.09,1.4,5.36,2.6,8.75,4.61,18.38,8.78,27.47,12.35Z"/>
          <path class="cls-1" d="M927.14,590.59c.31-.03.66-.01.98,0,2.81.12,5.66.66,8.45.98,2.71.3,4.63.96,4.88.98-.69.68.49.78,1.3.98,4.74,13.52,11.69,26.14,17.56,39.18,1.77,3.93,3.69,10.88,6.18,13.17-.3,4.83-.65,9.79-.33,14.63-.06.08-.88,1.43-.98,1.63-.02.05-.29.15-.65.81,9.47-1.31,19.09-3.15,28.61-4.71-4.85,5.64-9.1,11.97-13.98,17.56-9.86,11.3-21.33,21.2-31.54,32.19h-.65q-10.4-14.96-20.81-29.91v-.33c7.79-3.32,29.38-10.67,34.62-13.33.76-.39,2.25-1.01,2.11-1.63-.06-.6-1.29-.87-1.63-1.3-3.97-5.15-8.36-9.99-12.35-15.12-2.35-3.02-4.11-6.5-7.15-8.94.41-.3,1-.33,1.3-.81-.08-1-15.02-.25-16.91-.49,0-.11,0-.22,0-.33.05-8.48.42-39.54,0-43.24-.06-.53.04-1.09,0-1.63.4-.23.51-.27.98-.33Z"/>
          <path class="cls-6" d="M926.16,678.05q10.4,14.96,20.81,29.91c-13.22,0-26.44-.6-39.66-.33l-.65-.33c-.48-.62-.26-1.14-.33-1.3,1.13.68.37,1.52,1.63.16,1.71-1.84,17.18-25.69,17.23-27.31.02-.7-.81-.37-.98-1.14.59.23,1.3.38,1.95.33Z"/>
          <path class="cls-11" d="M985.33,581.49s.5.2,0,.65c-8.53,3.09-30.84,9.09-39.01,10.08-1.6.19-3.26.41-4.88.33-.25-.01-2.17-.67-4.88-.98q5.2-3.41,10.4-6.83c1.26-.43,2.68-.78,3.9-1.3q17.23-.98,34.46-1.95Z"/>
          <path class="cls-9" d="M989.23,564.26q.81,9.43,1.63,18.86c-1.77-.89-3.6-1.47-5.53-.98.5-.45,0-.62,0-.65,1.04-5.74,2.37-11.52,3.58-17.23h.33Z"/>
          <path class="cls-10" d="M998.34,589.62c-.32,0-.65,0-.98,0-1.28-2.07-4.4-5.44-6.5-6.5q-.81-9.43-1.63-18.86c1.73,7.33,8.02,20.95,9.1,25.36Z"/>
          <g>
            <path class="cls-23" d="M1018.49,520.04l-3.25,42.75c-2.7,6-4.94,12.18-7.15,18.37-.11.32-.2.63-.33.98l-.16-.98c-3.43,4.13-5.38,11.75-8.62,13.65v-3.58c-.33-.54-.5-1.01-.65-1.63-1.08-4.41-7.37-18.02-9.1-25.36h-.33c1.42-4.12,24.11-37.19,28.61-43.73.24-.34.53-.58.98-.49Z"/>
            <path class="cls-29" d="M1007.76,582.14c-.08.23-.29,1.63-.98,3.58-3.47,9.86-6.66,15.33-8.78,26.33-.65-5.69.46-11.54.98-17.23,3.24-1.9,5.19-9.52,8.62-13.65l.16.98Z"/>
          </g>
          <path class="cls-21" d="M1002.89,604.25c-.11.47.11,1.15,0,1.63-1.01-.77-3.43,7.26-4.23,10.08l-.65.49-.33-2.44c.12-.65.2-1.28.33-1.95,2.12-11,5.31-16.47,8.78-26.33-1.14,6.2-2.5,12.39-3.9,18.53Z"/>
          <g>
            <path class="cls-6" d="M908.93,592.22c1.34,1.7-10.12,3.16-13.82,3.58-9.87,1.12-19.45.11-29.26.98-3.7,3.39,9.16,8.53,13,11.05,9.26,6.09,18.01,13.05,28.45,17.23-.48,3.7-1.43,7.3-1.63,11.05-.06,1.11-.21,8.84.16,9.1,3.96-.03,7.91.04,11.87,0q-6.1.16-12.19.33-5.77,8.45-11.54,16.91-18.86-30.32-37.71-60.63c-.84-2.44,1.17-4.73,2.28-6.66q8.13-2.76,16.26-5.53c11.05.88,23.21,2.11,34.14,2.6Z"/>
            <path class="cls-16" d="M912.18,592.87c-1.66,10.71-3.49,21.44-4.88,32.19-10.44-4.18-19.18-11.14-28.45-17.23-3.84-2.53-16.71-7.66-13-11.05,9.81-.87,19.4.14,29.26-.98,3.69-.42,15.16-1.88,13.82-3.58.46.02,2.51.44,3.25.65Z"/>
          </g>
          <path class="cls-19" d="M924.21,677.72c.17.77,1,.44.98,1.14-.05,1.61-15.52,25.47-17.23,27.31-1.26,1.35-.49.52-1.63-.16-2.41-5.77-8.29-32.89-12.03-42.1l.49-.49c9.14,4.12,20.4,10.8,29.42,14.3Z"/>
          <path class="cls-17" d="M926.16,590.92c.04.53-.06,1.1,0,1.63-.59-.14-1.08,1-1.3,1.46-6.39,13.74-12.02,27.94-18.21,41.78-.3-.01-.44.48-.98.33.19-3.75,1.15-7.35,1.63-11.05,1.39-10.74,3.21-21.48,4.88-32.19,1.62-.07,3.39-.94,3.58-.98,2.36-.48,5.18-1.44,7.48-2.28.32.15,2.47.16,2.93,1.3Z"/>
          <path class="cls-8" d="M902.43,581.16q-16.66.16-33.32.33-3.33-9.43-6.66-18.86c1.66,1.45,35.08,16.39,39.99,18.53Z"/>
          <path class="cls-3" d="M962.9,662.77c.14.62-1.35,1.24-2.11,1.63-5.24,2.66-26.83,10.01-34.62,13.33.29-5.1-.25-10.2-.33-15.28,12.35.13,24.7.58,37.06.33Z"/>
          <path class="cls-25" d="M925.51,645.21h.65v.33q-12.19,8.62-24.38,17.23c-2.57-.06-5.19-.6-7.8-.33q5.77-8.45,11.54-16.91,6.1-.16,12.19-.33c2.6-.02,5.2.02,7.8,0Z"/>
          <path class="cls-6" d="M926.16,646.19c-.93,4.87-.4,11.25-.33,16.26-7.99-.09-16.12.51-24.06.33q12.19-8.62,24.38-17.23c-.02.21.04.45,0,.65Z"/>
          <path class="cls-13" d="M874.79,589.62q-8.13,2.76-16.26,5.53c2.06-3.63,2.74-4.74,6.66-7.15,2.66.51,7.1,1.43,9.59,1.63Z"/>
          <path class="cls-13" d="M923.23,589.62c-2.3.83-5.12,1.8-7.48,2.28-1.76-2.21-5.42-5.17-5.53-7.48,4.31,1.81,8.79,3.15,13,5.2Z"/>
          <path class="cls-13" d="M946.97,584.74q-5.2,3.41-10.4,6.83c-2.8-.31-5.64-.86-8.45-.98v-.98c5.78-1.52,13.5-3.03,18.86-4.88Z"/>
          <path class="cls-7" d="M928.11,590.59c-.32-.01-.66-.03-.98,0-.05-.24-.21-.43-.33-.65.75.15.97-.24,1.3-.33v.98Z"/>
          <path class="cls-25" d="M926.16,592.54c.42,3.7.05,34.76,0,43.24-6.5.74-13,.28-19.51,0,6.18-13.84,11.82-28.04,18.21-41.78.22-.46.71-1.6,1.3-1.46Z"/>
          <path class="cls-27" d="M961.27,661.47c.33.43,1.57.7,1.63,1.3-12.36.25-24.71-.19-37.06-.33-.08-5.01-.6-11.39.33-16.26,2.33.25,8.41,2.93,11.22,4.23,3.68,1.7,21.53,11.04,22.76,11.38.51.14.74-.16,1.14-.33Z"/>
          <path class="cls-27" d="M961.27,661.47c-.39.17-.63.47-1.14.33-1.23-.34-19.08-9.67-22.76-11.38-2.81-1.3-8.89-3.98-11.22-4.23.04-.2-.02-.44,0-.65v-.33c1.06-.18,14.31-6.85,15.61-7.8,3.05,2.44,4.81,5.92,7.15,8.94,3.99,5.13,8.39,9.97,12.35,15.12Z"/>
          <g>
            <path class="cls-11" d="M926.16,635.78c0,.11,0,.22,0,.33-.02,3.36.44,7.62-.65,9.1-2.6.02-5.2-.02-7.8,0-3.95.04-7.91-.03-11.87,0-.37-.26-.22-7.99-.16-9.1.54.16.68-.34.98-.33,6.5.28,13.01.74,19.51,0Z"/>
            <path class="cls-12" d="M941.77,637.41c-1.3.95-14.55,7.62-15.61,7.8h-.65c1.09-1.48.63-5.74.65-9.1,1.88.24,16.83-.51,16.91.49-.3.48-.89.51-1.3.81Z"/>
          </g>
          <g>
            <path class="cls-28" d="M994.76,629.28c.11.1.54.88.65.98q-1.14,13.98-2.28,27.96c-9.52,1.56-19.14,3.41-28.61,4.71.36-.66.63-.77.65-.81,2.14-.5,8.06-7.72,10.4-10.57,1.11-1.35,8.66-10.67,8.78-11.38,0-.04-.45-.53-.65-.49,3.38-3.82,6.83-7.58,10.24-11.38.44.29.76.93.81.98Z"/>
            <path class="cls-18" d="M965.17,662.12c.1-.19.92-1.55.98-1.63,2.83-3.89,13.65-16.39,17.56-20.81.2-.04.66.45.65.49-.12.71-7.67,10.03-8.78,11.38-2.34,2.85-8.27,10.07-10.4,10.57Z"/>
          </g>
          <g>
            <path class="cls-27" d="M1018.49,611.07c.43,0,.87,0,1.3,0-.03.15.36.8-.33,3.09-1.48,2.61-2.77,5.35-4.23,7.97-.89,1.59-8.83,14-9.43,14.63q-1.14-13.25-2.28-26.5c.39-1.15,11.95.76,14.96.81Z"/>
            <path class="cls-27" d="M1022.39,588.32c-5.43,4.3-10.61,8.91-15.93,13.33-1.12.93-2.32,1.86-3.58,2.6,1.4-6.14,2.77-12.33,3.9-18.53.69-1.95.89-3.34.98-3.58.12-.34.21-.66.33-.98,2.56,1.57,13.2,5.89,14.3,7.15Z"/>
            <path class="cls-4" d="M1019.79,611.07c-.43,0-.87,0-1.3,0l-12.03-9.43c5.32-4.42,10.5-9.03,15.93-13.33.05.05.52-.14.65.16-.96,7.49-1.56,15.19-3.25,22.6Z"/>
            <path class="cls-11" d="M1018.49,611.07c-3.01-.05-14.57-1.96-14.96-.81q1.14,13.25,2.28,26.5s.17.53-.49.98c-.8.12-8.68-6.4-9.92-7.48-.11-.1-.54-.88-.65-.98,2.42-4.77,2-10.17,2.93-15.28l.33,2.44.65-.49c-2.67,9.47,1.47,2.11,4.23-10.08.11-.47-.11-1.16,0-1.63,1.26-.74,2.46-1.67,3.58-2.6l12.03,9.43Z"/>
            <path class="cls-2" d="M1002.89,605.87c-2.76,12.19-6.89,19.55-4.23,10.08.79-2.82,3.22-10.85,4.23-10.08Z"/>
          </g>
          <g>
            <path class="cls-27" d="M998.99,594.82c-.52,5.69-1.63,11.54-.98,17.23-.13.67-.21,1.3-.33,1.95-.93,5.11-.51,10.51-2.93,15.28-.05-.04-.37-.68-.81-.98-3.41,3.8-6.86,7.55-10.24,11.38-3.91,4.42-14.72,16.92-17.56,20.81-.32-4.84.02-9.8.33-14.63.93-14.92,2.74-29.81,5.2-44.54l2.44.33c5.34-2.62,18.01-5.85,22.11-7.8,1.17-.56,2.19-1.39,2.76-2.6v3.58Z"/>
            <path class="cls-27" d="M997.36,589.62c.32,0,.65,0,.98,0,.15.61.32,1.09.65,1.63-.57,1.21-1.59,2.04-2.76,2.6-4.1,1.95-16.77,5.18-22.11,7.8l-2.44-.33c-9.42-3.42-19.22-5.46-28.94-7.8-.81-.2-1.99-.3-1.3-.98,1.62.09,3.28-.13,4.88-.33,1.83.92,4.8-.21,6.99-.33,9.05-.46,18.23.23,27.31-.33,5.47-.33,13.63-1.86,16.74-1.95Z"/>
            <path class="cls-24" d="M971.68,601.32c-2.47,14.73-4.27,29.62-5.2,44.54-2.49-2.29-4.41-9.23-6.18-13.17-5.87-13.04-12.82-25.65-17.56-39.18,9.71,2.34,19.52,4.38,28.94,7.8Z"/>
            <path class="cls-24" d="M990.86,583.12c2.11,1.06,5.22,4.43,6.5,6.5-3.11.09-11.27,1.62-16.74,1.95-9.07.55-18.26-.13-27.31.33-2.19.11-5.16,1.25-6.99.33,8.17-.99,30.48-6.99,39.01-10.08,1.93-.49,3.76.08,5.53.98Z"/>
          </g>
        </g>
      </g>
      <g>
        <g>
          <path class="cls-12" d="M222.47,723.56c-1.19-.22-1.34.58-.49,1.3,7.79,4.61,39.25,29.72,44.87,30.89.56.12.99-.04,1.46-.33.61.66,1.48,1.27,2.11,1.95q.24-2.11.49-4.23v5.53c-27.88-5.06-55.91-9.19-83.88-13.65.57-7.44-1.27-14.95-1.3-22.43,6.1.21,29.61-2.07,32.02-1.63,1.03.67,3.86,2.28,4.71,2.6Z"/>
          <path class="cls-11" d="M185.73,722.59c.03,7.49,1.87,14.99,1.3,22.43-12.88-2.06-25.7-4.53-38.69-5.85-.15-.41.9-1.18,1.14-1.3,10.68-5.51,22.13-9.76,32.67-15.61.85-.4,2.11.28,3.58.33Z"/>
          <g>
            <path class="cls-29" d="M360.65,715.11c-.44,3.5-5.5,27.65-5.2,29.1.32,1.54,1.96.27,2.6,1.14-27.48,4.28-55.02,8.21-82.42,13l-1.46-.33c2.17-1.35,14.48-13.83,17.56-16.91,12.87-12.86,24.64-26.69,37.06-39.99.78,1.75,27.97,12.26,31.86,13.98Z"/>
            <path class="cls-10" d="M365.85,712.84c2.99,2.07,5.73,4.47,8.78,6.5,4.08,3.51,8.23,6.95,12.35,10.4-.46-.06-.25.64-.49.65-1.38.04-20.41-12.8-23.9-13.65l-1.95-1.63c-3.89-1.72-31.08-12.23-31.86-13.98q-.98-7.48-1.95-14.96c1.61,1.73,33.8,23.06,39.01,26.66Z"/>
            <path class="cls-29" d="M362.6,716.74q9.27,12.52,18.53,25.03c-7.68,1.25-15.39,2.38-23.08,3.58-.64-.86-2.28.41-2.6-1.14-.3-1.45,4.76-25.59,5.2-29.1l1.95,1.63Z"/>
            <path class="cls-29" d="M386.98,729.74c3.68,3.09,7.52,6,11.05,9.27-5.62,1.01-11.27,1.85-16.91,2.76q-9.27-12.52-18.53-25.03c3.48.85,22.52,13.69,23.9,13.65.24,0,.03-.71.49-.65Z"/>
          </g>
          <path class="cls-12" d="M167.85,719.99q7.15,1.14,14.3,2.28c-10.55,5.84-21.99,10.09-32.67,15.61-.24.12-1.29.89-1.14,1.3l-2.93-.81c6.01-4.27,11.34-9.35,16.91-14.14.98-.85,1.96-1.78,2.93-2.6.81-.4,1.93-1.07,2.6-1.63Z"/>
          <path class="cls-3" d="M270.26,713.49q.33,19.83.65,39.66-.24,2.11-.49,4.23c-.63-.68-1.5-1.29-2.11-1.95-4.15-4.51-13.08-17.35-17.88-23.08v-.33q9.43-9.59,18.86-19.18c.97.31.92.63.98.65Z"/>
          <path class="cls-12" d="M222.47,723.56c4.74,1.79,23.87,8.93,26.82,9.43.61.1,1.3.14,1.14-.65,4.8,5.73,13.73,18.57,17.88,23.08-.47.29-.9.44-1.46.33-5.61-1.17-37.08-26.28-44.87-30.89-.85-.73-.7-1.52.49-1.3Z"/>
          <g>
            <path class="cls-8" d="M282.29,717.71c2.43,8.05,6.58,15.48,9.43,23.41-3.08,3.07-15.39,15.56-17.56,16.91-.48.3-.96.69-1.46.98q-.89-.16-1.79-.33v-5.53q-.33-19.83-.65-39.66c2.11.7,10.93,2.94,12.03,4.23Z"/>
            <path class="cls-12" d="M323.58,678.05c.72,2.19,1.59,4.37,1.95,6.66.24.73.86.99,1.3,1.46q.98,7.48,1.95,14.96c-12.43,13.3-24.19,27.12-37.06,39.99-2.84-7.93-7-15.36-9.43-23.41,3.27-3.03,6.08-6.5,9.1-9.75,10.21-10.99,21.67-20.89,31.54-32.19.19.76.41,1.54.65,2.28Z"/>
            <path class="cls-11" d="M290.75,707.96h.65c-3.03,3.26-5.84,6.72-9.1,9.75-1.1-1.28-9.92-3.53-12.03-4.23-.06-.02,0-.34-.98-.65-3.59-1.14-16.93-4.22-18.21-5.2,13.22-.28,26.44.33,39.66.33Z"/>
          </g>
          <path class="cls-12" d="M251.08,707.63c1.27.98,14.62,4.06,18.21,5.2q-9.43,9.59-18.86,19.18v-.33c.25-8.03-.2-16.04-.33-24.06,0-.02.36.08.33-.33l.65.33Z"/>
        </g>
        <g>
          <path class="cls-11" d="M248.81,729.42c.52.74.76,1.79,1.63,2.28v.65c.17.8-.53.75-1.14.65-2.95-.5-22.08-7.64-26.82-9.43-.86-.32-3.68-1.93-4.71-2.6-2.41-.45-25.92,1.83-32.02,1.63-1.47-.05-2.73-.72-3.58-.33q-7.15-1.14-14.3-2.28c9.8-7.99,47.18-34.76,50.39-38.04,9.32,16.4,19.72,32.05,30.56,47.47Z"/>
          <path class="cls-11" d="M239.7,700.16c-.51.02-.07,1.91,0,2.11,1.91,5.82,8.55,21.51,9.43,25.68.12.56-.04,1-.33,1.46-10.84-15.42-21.24-31.07-30.56-47.47.03-.03.27-.48.33-.65,3.73,4.34,16.09,14.77,21.13,18.86Z"/>
          <path class="cls-8" d="M250.11,707.63c.13,8.02.58,16.03.33,24.06-.87-.49-1.1-1.53-1.63-2.28.29-.47.44-.91.33-1.46-.88-4.18-7.51-19.86-9.43-25.68-.07-.2-.51-2.1,0-2.11,3.3,2.68,6.64,5.45,10.4,7.48Z"/>
        </g>
        <g>
          <path class="cls-22" d="M268.64,481.68c.68,0,1.73,1.21,2.93,2.28,1.7,1.51,7.6,8.4,10.4,11.22,11.16,11.22,22.55,22.21,33.81,33.32v.33c-14.51-2.31-28.79-5.84-43.24-8.45-.07-.01-.02-.42-1.3-.65-22.97-3.39-46.24-4.49-69.41-5.85q18.78-10,37.55-19.99-14.47-8.05-28.94-16.09c1.09-.43,2.07-.34,3.25-.65.04.21,1.07.64,1.14.65,6.84.82,19.16,1.69,26.66,2.28,9.03.7,18.12.93,27.15,1.63Z"/>
          <g>
            <path class="cls-5" d="M335.61,478.43l-.33,34.3c-1.05,1.71-2.41-.39-2.93.49q-13.98-7.15-27.96-14.3-14.47-8.94-28.94-17.88,27.15-1.79,54.29-3.58c1.89.4,4.04.08,5.85.98Z"/>
            <path class="cls-27" d="M357.07,508.01c1.65,3.69,3.05,7.62,4.55,11.38q-14.14-2.93-28.28-5.85l-.98-.33c.51-.87,1.88,1.22,2.93-.49l.33-34.3q6.18,5.45,12.35,10.89c2.97,6.24,6.28,12.39,9.1,18.69Z"/>
          </g>
          <path class="cls-18" d="M258.23,467.37c2.23,3.39,8.77,10.68,10.08,13,.24.43.43.77.33,1.3-9.03-.7-18.12-.92-27.15-1.63-7.5-.58-19.82-1.45-26.66-2.28-.07,0-1.1-.44-1.14-.65,11.36-3.02,32.3-7.31,44.54-9.75Z"/>
          <path class="cls-28" d="M329.76,477.45q-27.15,1.79-54.29,3.58-2.44.08-4.88.16,5.36-6.91,10.73-13.82c16.15,3.08,32.35,6.66,48.44,10.08Z"/>
          <path class="cls-28" d="M281.32,467.37q-5.36,6.91-10.73,13.82,2.44-.08,4.88-.16,14.47,8.94,28.94,17.88c-9.1-3.58-18.72-7.74-27.47-12.35-2.28-1.2-6.51-4.92-5.36-2.6-1.2-1.06-2.25-2.28-2.93-2.28.11-.53-.08-.87-.33-1.3q.16-7.8.33-15.61c4.22.88,8.44,1.79,12.68,2.6Z"/>
          <path class="cls-13" d="M210.12,477.78c-3.33,11.64-5.42,23.71-9.43,35.11-.1-.98-.22-1.95-.33-2.93-.77-7.48-1.57-14.98-2.6-22.43v-.33c1.7-1.65,10.58-8.77,12.35-9.43Z"/>
          <path class="cls-28" d="M268.31,480.38c-1.31-2.32-7.85-9.62-10.08-13,3.45-.69,6.91-1.98,10.4-2.6q-.16,7.8-.33,15.61Z"/>
          <path class="cls-12" d="M361.62,519.39l.65.65c-.45-.09-.74.15-.98.49-4.5,6.53-27.19,39.61-28.61,43.73-1.2,5.71-2.53,11.49-3.58,17.23q-17.23.98-34.46,1.95c5.62-2.39,28.11-16.88,37.06-20.97l-15.93-33.65v-.33q8.78-7.48,17.56-14.96,14.14,2.93,28.28,5.85Z"/>
          <path class="cls-11" d="M200.36,509.96c.1.98.23,1.95.33,2.93,1.64,16.13,2.86,32.31,4.55,48.44-.11.72.49.88.98,1.3q3.33,9.43,6.66,18.86,16.66-.16,33.32-.33c2.59,1.13,5.2,2.16,7.8,3.25.11,2.31,3.76,5.27,5.53,7.48-.18.04-1.95.91-3.58.98-.74-.21-2.79-.63-3.25-.65-10.93-.49-23.09-1.72-34.14-2.6-2.49-.2-6.93-1.11-9.59-1.63-3.92,2.41-4.6,3.52-6.66,7.15-1.1,1.94-3.12,4.23-2.28,6.66q18.86,30.32,37.71,60.63c2.61-.28,5.23.27,7.8.33,7.94.18,16.07-.41,24.06-.33.08,5.08.62,10.18.33,15.28v.33c-.65.06-1.36-.09-1.95-.33-9.02-3.5-20.28-10.19-29.42-14.3l-.49.49c3.73,9.22,9.62,36.33,12.03,42.1.07.16-.15.68.33,1.3.03.41-.33.3-.33.33-3.76-2.03-7.1-4.8-10.4-7.48-5.05-4.09-17.4-14.52-21.13-18.86-3.98-4.63-11.94-17.33-16.26-23.25q-.98-12.84-1.95-25.68c-.53-.96-8.47,5.1-9.59,5.36-3.37-6.29-7.06-12.65-9.92-19.18-.69-1.58-1.56-3.34-2.6-4.71q-1.14-12.52-2.28-25.03l14.96-8.13q-3.74-8.78-7.48-17.56c-1.04-14.33-2.58-28.63-3.9-42.91,2.48-4.77,5.31-9.38,7.8-14.14,1.59.79,11.53,6.71,12.19,6.5.95-.3.05-2.17.81-2.6Z"/>
          <path class="cls-11" d="M200.36,509.96c-.77.43.14,2.3-.81,2.6-.66.21-10.6-5.71-12.19-6.5,3.28-6.27,6.3-12.73,10.4-18.53,1.03,7.45,1.83,14.95,2.6,22.43Z"/>
          <g>
            <path class="cls-6" d="M271.24,519.72c-22.23,12.98-43.55,27.5-64.86,41.94l-1.14-.33c-1.69-16.13-2.92-32.31-4.55-48.44,4.01-11.41,6.1-23.47,9.43-35.11h.33q14.47,8.05,28.94,16.09-18.78,10-37.55,19.99c23.17,1.36,46.44,2.47,69.41,5.85Z"/>
            <path class="cls-27" d="M315.78,528.82l15.93,33.65c-8.95,4.09-31.44,18.58-37.06,20.97-1.23.52-2.64.87-3.9,1.3-5.36,1.84-13.08,3.36-18.86,4.88-.33.09-.55.48-1.3.33-1.55-3.12,2.26-61.11,1.95-69.57,14.45,2.61,28.73,6.14,43.24,8.45Z"/>
            <path class="cls-16" d="M272.54,520.37c.31,8.46-3.5,66.46-1.95,69.57.11.22.28.41.33.65-.47.05-.58.09-.98.33-.46-1.14-2.61-1.15-2.93-1.3-4.21-2.05-8.69-3.39-13-5.2-2.6-1.09-5.22-2.12-7.8-3.25-4.91-2.14-38.33-17.08-39.99-18.53-.48-.42-1.08-.58-.98-1.3l1.14.33c21.31-14.44,42.63-28.96,64.86-41.94,1.28.23,1.23.64,1.3.65Z"/>
          </g>
          <path class="cls-20" d="M304.4,498.91q13.98,7.15,27.96,14.3l.98.33q-8.78,7.48-17.56,14.96c-11.26-11.12-22.65-22.1-33.81-33.32-2.8-2.82-8.7-9.7-10.4-11.22-1.15-2.32,3.09,1.4,5.36,2.6,8.75,4.61,18.38,8.78,27.47,12.35Z"/>
          <path class="cls-14" d="M270.91,590.59c.31-.03.66-.01.98,0,2.81.12,5.66.66,8.45.98,2.71.3,4.63.96,4.88.98-.69.68.49.78,1.3.98,4.74,13.52,11.69,26.14,17.56,39.18,1.77,3.93,3.69,10.88,6.18,13.17-.3,4.83-.65,9.79-.33,14.63-.06.08-.88,1.43-.98,1.63-.02.05-.29.15-.65.81,9.47-1.31,19.09-3.15,28.61-4.71-4.85,5.64-9.1,11.97-13.98,17.56-9.86,11.3-21.33,21.2-31.54,32.19h-.65q-10.4-14.96-20.81-29.91v-.33c7.79-3.32,29.38-10.67,34.62-13.33.76-.39,2.25-1.01,2.11-1.63-.06-.6-1.29-.87-1.63-1.3-3.97-5.15-8.36-9.99-12.35-15.12-2.35-3.02-4.11-6.5-7.15-8.94.41-.3,1-.33,1.3-.81-.08-1-15.02-.25-16.91-.49,0-.11,0-.22,0-.33.05-8.48.42-39.54,0-43.24-.06-.53.04-1.09,0-1.63.4-.23.51-.27.98-.33Z"/>
          <path class="cls-6" d="M269.94,678.05q10.4,14.96,20.81,29.91c-13.22,0-26.44-.6-39.66-.33l-.65-.33c-.48-.62-.26-1.14-.33-1.3,1.13.68.37,1.52,1.63.16,1.71-1.84,17.18-25.69,17.23-27.31.02-.7-.81-.37-.98-1.14.59.23,1.3.38,1.95.33Z"/>
          <path class="cls-11" d="M329.11,581.49s.5.2,0,.65c-8.53,3.09-30.84,9.09-39.01,10.08-1.6.19-3.26.41-4.88.33-.25-.01-2.17-.67-4.88-.98q5.2-3.41,10.4-6.83c1.26-.43,2.68-.78,3.9-1.3q17.23-.98,34.46-1.95Z"/>
          <path class="cls-9" d="M333.01,564.26q.81,9.43,1.63,18.86c-1.77-.89-3.6-1.47-5.53-.98.5-.45,0-.62,0-.65,1.04-5.74,2.37-11.52,3.58-17.23h.33Z"/>
          <path class="cls-10" d="M342.11,589.62c-.32,0-.65,0-.98,0-1.28-2.07-4.4-5.44-6.5-6.5q-.81-9.43-1.63-18.86c1.73,7.33,8.02,20.95,9.1,25.36Z"/>
          <g>
            <path class="cls-23" d="M362.27,520.04q-1.63,21.38-3.25,42.75c-2.7,6-4.94,12.18-7.15,18.37-.11.32-.2.63-.33.98l-.16-.98c-3.43,4.13-5.38,11.75-8.62,13.65v-3.58c-.33-.54-.5-1.01-.65-1.63-1.08-4.41-7.37-18.02-9.1-25.36h-.33c1.42-4.12,24.11-37.19,28.61-43.73.24-.34.53-.58.98-.49Z"/>
            <path class="cls-29" d="M351.54,582.14c-.08.23-.29,1.63-.98,3.58-3.47,9.86-6.66,15.33-8.78,26.33-.65-5.69.46-11.54.98-17.23,3.24-1.9,5.19-9.52,8.62-13.65l.16.98Z"/>
          </g>
          <path class="cls-21" d="M346.67,604.25c-.11.47.11,1.15,0,1.63-1.01-.77-3.43,7.26-4.23,10.08l-.65.49-.33-2.44c.12-.65.2-1.28.33-1.95,2.12-11,5.31-16.47,8.78-26.33-1.14,6.2-2.5,12.39-3.9,18.53Z"/>
          <g>
            <path class="cls-6" d="M252.71,592.22c1.34,1.7-10.12,3.16-13.82,3.58-9.87,1.12-19.45.11-29.26.98-3.7,3.39,9.16,8.53,13,11.05,9.26,6.09,18.01,13.05,28.45,17.23-.48,3.7-1.43,7.3-1.63,11.05-.06,1.11-.21,8.84.16,9.1,3.96-.03,7.91.04,11.87,0q-6.1.16-12.19.33-5.77,8.45-11.54,16.91-18.86-30.32-37.71-60.63c-.84-2.44,1.17-4.73,2.28-6.66q8.13-2.76,16.26-5.53c11.05.88,23.21,2.11,34.14,2.6Z"/>
            <path class="cls-16" d="M255.96,592.87c-1.66,10.71-3.49,21.44-4.88,32.19-10.44-4.18-19.18-11.14-28.45-17.23-3.84-2.53-16.71-7.66-13-11.05,9.81-.87,19.4.14,29.26-.98,3.69-.42,15.16-1.88,13.82-3.58.46.02,2.51.44,3.25.65Z"/>
          </g>
          <path class="cls-19" d="M267.99,677.72c.17.77,1,.44.98,1.14-.05,1.61-15.52,25.47-17.23,27.31-1.26,1.35-.49.52-1.63-.16-2.41-5.77-8.29-32.89-12.03-42.1l.49-.49c9.14,4.12,20.4,10.8,29.42,14.3Z"/>
          <path class="cls-17" d="M269.94,590.92c.04.53-.06,1.1,0,1.63-.59-.14-1.08,1-1.3,1.46-6.39,13.74-12.02,27.94-18.21,41.78-.3-.01-.44.48-.98.33.19-3.75,1.15-7.35,1.63-11.05,1.39-10.74,3.21-21.48,4.88-32.19,1.62-.07,3.39-.94,3.58-.98,2.36-.48,5.18-1.44,7.48-2.28.32.15,2.47.16,2.93,1.3Z"/>
          <path class="cls-8" d="M246.21,581.16q-16.66.16-33.32.33-3.33-9.43-6.66-18.86c1.66,1.45,35.08,16.39,39.99,18.53Z"/>
          <path class="cls-3" d="M306.68,662.77c.14.62-1.35,1.24-2.11,1.63-5.24,2.66-26.83,10.01-34.62,13.33.29-5.1-.25-10.2-.33-15.28,12.35.13,24.7.58,37.06.33Z"/>
          <path class="cls-25" d="M269.29,645.21h.65v.33q-12.19,8.62-24.38,17.23c-2.57-.06-5.19-.6-7.8-.33q5.77-8.45,11.54-16.91,6.1-.16,12.19-.33c2.6-.02,5.2.02,7.8,0Z"/>
          <path class="cls-6" d="M269.94,646.19c-.93,4.87-.4,11.25-.33,16.26-7.99-.09-16.12.51-24.06.33q12.19-8.62,24.38-17.23c-.02.21.04.45,0,.65Z"/>
          <path class="cls-13" d="M218.57,589.62q-8.13,2.76-16.26,5.53c2.06-3.63,2.74-4.74,6.66-7.15,2.66.51,7.1,1.43,9.59,1.63Z"/>
          <path class="cls-13" d="M267.01,589.62c-2.3.83-5.12,1.8-7.48,2.28-1.76-2.21-5.42-5.17-5.53-7.48,4.31,1.81,8.79,3.15,13,5.2Z"/>
          <path class="cls-13" d="M290.75,584.74q-5.2,3.41-10.4,6.83c-2.8-.31-5.64-.86-8.45-.98v-.98c5.78-1.52,13.5-3.03,18.86-4.88Z"/>
          <path class="cls-7" d="M271.89,590.59c-.32-.01-.66-.03-.98,0-.05-.24-.21-.43-.33-.65.75.15.97-.24,1.3-.33v.98Z"/>
          <path class="cls-25" d="M269.94,592.54c.42,3.7.05,34.76,0,43.24-6.5.74-13,.28-19.51,0,6.18-13.84,11.82-28.04,18.21-41.78.22-.46.71-1.6,1.3-1.46Z"/>
          <path class="cls-27" d="M305.05,661.47c.33.43,1.57.7,1.63,1.3-12.36.25-24.71-.19-37.06-.33-.08-5.01-.6-11.39.33-16.26,2.33.25,8.41,2.93,11.22,4.23,3.68,1.7,21.53,11.04,22.76,11.38.51.14.74-.16,1.14-.33Z"/>
          <path class="cls-27" d="M305.05,661.47c-.39.17-.63.47-1.14.33-1.23-.34-19.08-9.67-22.76-11.38-2.81-1.3-8.89-3.98-11.22-4.23.04-.2-.02-.44,0-.65v-.33c1.06-.18,14.31-6.85,15.61-7.8,3.05,2.44,4.81,5.92,7.15,8.94,3.99,5.13,8.39,9.97,12.35,15.12Z"/>
          <g>
            <path class="cls-11" d="M269.94,635.78c0,.11,0,.22,0,.33-.02,3.36.44,7.62-.65,9.1-2.6.02-5.2-.02-7.8,0-3.95.04-7.91-.03-11.87,0-.37-.26-.22-7.99-.16-9.1.54.16.68-.34.98-.33,6.5.28,13.01.74,19.51,0Z"/>
            <path class="cls-12" d="M285.54,637.41c-1.3.95-14.55,7.62-15.61,7.8h-.65c1.09-1.48.63-5.74.65-9.1,1.88.24,16.83-.51,16.91.49-.3.48-.89.51-1.3.81Z"/>
          </g>
          <g>
            <path class="cls-28" d="M338.54,629.28c.11.1.54.88.65.98q-1.14,13.98-2.28,27.96c-9.52,1.56-19.14,3.41-28.61,4.71.36-.66.63-.77.65-.81,2.14-.5,8.06-7.72,10.4-10.57,1.11-1.35,8.66-10.67,8.78-11.38,0-.04-.45-.53-.65-.49,3.38-3.82,6.83-7.58,10.24-11.38.44.29.76.93.81.98Z"/>
            <path class="cls-18" d="M308.95,662.12c.1-.19.92-1.55.98-1.63,2.83-3.89,13.65-16.39,17.56-20.81.2-.04.66.45.65.49-.12.71-7.67,10.03-8.78,11.38-2.34,2.85-8.27,10.07-10.4,10.57Z"/>
          </g>
          <g>
            <path class="cls-27" d="M362.27,611.07c.43,0,.87,0,1.3,0-.03.15.36.8-.33,3.09-1.48,2.61-2.77,5.35-4.23,7.97-.89,1.59-8.83,14-9.43,14.63q-1.14-13.25-2.28-26.5c.39-1.15,11.95.76,14.96.81Z"/>
            <path class="cls-27" d="M366.17,588.32c-5.43,4.3-10.61,8.91-15.93,13.33-1.12.93-2.32,1.86-3.58,2.6,1.4-6.14,2.77-12.33,3.9-18.53.69-1.95.89-3.34.98-3.58.12-.34.21-.66.33-.98,2.56,1.57,13.2,5.89,14.3,7.15Z"/>
            <path class="cls-4" d="M363.57,611.07c-.43,0-.87,0-1.3,0q-6.01-4.71-12.03-9.43c5.32-4.42,10.5-9.03,15.93-13.33.05.05.52-.14.65.16-.96,7.49-1.56,15.19-3.25,22.6Z"/>
            <path class="cls-11" d="M362.27,611.07c-3.01-.05-14.57-1.96-14.96-.81q1.14,13.25,2.28,26.5s.17.53-.49.98c-.8.12-8.68-6.4-9.92-7.48-.11-.1-.54-.88-.65-.98,2.42-4.77,2-10.17,2.93-15.28l.33,2.44.65-.49c-2.67,9.47,1.47,2.11,4.23-10.08.11-.47-.11-1.16,0-1.63,1.26-.74,2.46-1.67,3.58-2.6q6.01,4.71,12.03,9.43Z"/>
            <path class="cls-2" d="M346.67,605.87c-2.76,12.19-6.89,19.55-4.23,10.08.79-2.82,3.22-10.85,4.23-10.08Z"/>
          </g>
          <g>
            <path class="cls-27" d="M342.76,594.82c-.52,5.69-1.63,11.54-.98,17.23-.13.67-.21,1.3-.33,1.95-.93,5.11-.51,10.51-2.93,15.28-.05-.04-.37-.68-.81-.98-3.41,3.8-6.86,7.55-10.24,11.38-3.91,4.42-14.72,16.92-17.56,20.81-.32-4.84.02-9.8.33-14.63.93-14.92,2.74-29.81,5.2-44.54l2.44.33c5.34-2.62,18.01-5.85,22.11-7.8,1.17-.56,2.19-1.39,2.76-2.6v3.58Z"/>
            <path class="cls-27" d="M341.14,589.62c.32,0,.65,0,.98,0,.15.61.32,1.09.65,1.63-.57,1.21-1.59,2.04-2.76,2.6-4.1,1.95-16.77,5.18-22.11,7.8l-2.44-.33c-9.42-3.42-19.22-5.46-28.94-7.8-.81-.2-1.99-.3-1.3-.98,1.62.09,3.28-.13,4.88-.33,1.83.92,4.8-.21,6.99-.33,9.05-.46,18.23.23,27.31-.33,5.47-.33,13.63-1.86,16.74-1.95Z"/>
            <path class="cls-24" d="M315.45,601.32c-2.47,14.73-4.27,29.62-5.2,44.54-2.49-2.29-4.41-9.23-6.18-13.17-5.87-13.04-12.82-25.65-17.56-39.18,9.71,2.34,19.52,4.38,28.94,7.8Z"/>
            <path class="cls-24" d="M334.64,583.12c2.11,1.06,5.22,4.43,6.5,6.5-3.11.09-11.27,1.62-16.74,1.95-9.07.55-18.26-.13-27.31.33-2.19.11-5.16,1.25-6.99.33,8.17-.99,30.48-6.99,39.01-10.08,1.93-.49,3.76.08,5.53.98Z"/>
          </g>
        </g>
      </g>
    </g>
  </g>
</svg>